<svg width="140" height="32" viewBox="0 0 140 32" fill="none" xmlns="http://www.w3.org/2000/svg">
<path fill-rule="evenodd" clip-rule="evenodd" d="M17.725 1.78861C18.1594 1.53708 18.6952 1.53712 19.1296 1.78861L30.3554 8.28773C30.7882 8.53833 31.0548 9.00062 31.0548 9.50083V13.0359C31.0548 13.5345 30.79 13.9955 30.3593 14.2467L27.3537 16L30.3593 17.7532C30.79 18.0045 31.0548 18.4655 31.0548 18.964V22.4991C31.0548 22.9993 30.7882 23.4616 30.3554 23.7122L19.1296 30.2113C18.6951 30.4629 18.1594 30.4628 17.725 30.2113L6.49922 23.7122C6.06636 23.4616 5.7998 22.9993 5.7998 22.4991V9.50083C5.7998 9.00068 6.0663 8.53836 6.49922 8.28773L17.725 1.78861ZM24.5953 14.3909L16.1882 9.48672C15.2537 8.94162 14.0801 9.61562 14.0801 10.6975V21.3024C14.0801 22.3844 15.2537 23.0583 16.1882 22.5132L24.5953 17.6091L28.275 19.7556V21.7046L18.4273 27.4059L8.57963 21.7046V10.2954L18.4273 4.59409L28.275 10.2954V12.2444L24.5953 14.3909ZM21.8368 16L16.8599 18.9032V13.0968L21.8368 16Z" fill="white"/>
<path d="M52.1466 20.0055C52.2903 20.0055 52.402 20.1309 52.3813 20.2731C52.2018 21.5085 51.7987 22.6061 51.1719 23.5659C50.52 24.5747 49.6705 25.3659 48.6235 25.9396C47.5765 26.5132 46.3813 26.8 45.0379 26.8C43.5958 26.8 42.3117 26.444 41.1857 25.7319C40.0794 25.0198 39.2003 24.0506 38.5483 22.8242C37.9162 21.578 37.6001 20.1736 37.6001 18.611C37.6001 17.0286 37.9162 15.6242 38.5483 14.3978C39.2003 13.1714 40.0794 12.2121 41.1857 11.5198C42.3117 10.8077 43.5958 10.4517 45.0379 10.4517C46.3813 10.4517 47.5765 10.7385 48.6235 11.3121C49.6705 11.8857 50.52 12.6868 51.1719 13.7154C51.7979 14.6556 52.2009 15.7333 52.3807 16.9485C52.4018 17.0908 52.29 17.2165 52.1462 17.2165H49.1585C49.0386 17.2165 48.9377 17.128 48.9171 17.01C48.8071 16.3796 48.6006 15.8056 48.2975 15.2879C47.9814 14.7143 47.5468 14.2594 46.9937 13.9231C46.4603 13.567 45.8183 13.389 45.0676 13.389C44.2576 13.389 43.5464 13.6066 42.934 14.0418C42.3216 14.4769 41.8475 15.0901 41.5116 15.8813C41.1758 16.6528 41.0079 17.5626 41.0079 18.611C41.0079 19.6396 41.1758 20.5495 41.5116 21.3407C41.8475 22.1319 42.3216 22.755 42.934 23.2099C43.5464 23.6451 44.2576 23.8626 45.0676 23.8626C45.8183 23.8626 46.4603 23.6945 46.9937 23.3582C47.5468 23.0022 47.9814 22.5374 48.2975 21.9637C48.6006 21.4282 48.8072 20.8443 48.9172 20.212C48.9377 20.094 49.0386 20.0055 49.1585 20.0055H52.1466Z" fill="white"/>
<path d="M57.4365 18.5517V26.2633C57.4365 26.3958 57.329 26.5033 57.1965 26.5033H54.3576C54.225 26.5033 54.1176 26.3958 54.1176 26.2633V10.9884C54.1176 10.8558 54.225 10.7484 54.3576 10.7484H56.9298C57.0623 10.7484 57.1698 10.8558 57.1698 10.9884V13.0428C57.1698 13.2913 57.5289 13.3919 57.6787 13.1935C58.1999 12.5036 58.86 11.9259 59.6589 11.4604C60.7021 10.8449 61.8331 10.5636 63.052 10.6164C63.1774 10.6219 63.2741 10.7267 63.2741 10.8522V13.725C63.2741 13.8641 63.156 13.9738 63.017 13.9675C61.9941 13.9211 61.0723 14.0349 60.2516 14.3088C59.3823 14.5857 58.6909 15.0703 58.1773 15.7626C57.6834 16.455 57.4365 17.3846 57.4365 18.5517Z" fill="white"/>
<path d="M78.3441 21.1626C78.4989 21.1626 78.6133 21.3072 78.573 21.4566C78.1353 23.0779 77.3106 24.3645 76.0988 25.3165C74.8148 26.3055 73.2343 26.8 71.3576 26.8C69.8365 26.8 68.503 26.4539 67.3572 25.7615C66.2114 25.0692 65.3125 24.1099 64.6606 22.8835C64.0087 21.6374 63.6827 20.1835 63.6827 18.522C63.6827 16.9593 64.0087 15.5747 64.6606 14.3681C65.3323 13.1615 66.2311 12.2121 67.3572 11.5198C68.503 10.8077 69.8068 10.4517 71.2687 10.4517C72.4738 10.4517 73.5603 10.6791 74.5283 11.1341C75.4963 11.5692 76.3161 12.2022 76.9878 13.033C77.6595 13.844 78.1435 14.8033 78.4398 15.911C78.7197 16.9384 78.7969 18.0451 78.6715 19.2312C78.6588 19.3516 78.5564 19.4418 78.4354 19.4418H67.3651C67.2306 19.4418 67.122 19.5523 67.1288 19.6866C67.1731 20.5533 67.3578 21.3123 67.6831 21.9637C68.0387 22.6758 68.5227 23.2297 69.1351 23.6253C69.7476 24.0011 70.4686 24.189 71.2983 24.189C72.3651 24.189 73.2442 23.9319 73.9356 23.4176C74.6016 22.9175 75.0597 22.2265 75.31 21.3448C75.3401 21.2384 75.4358 21.1626 75.5464 21.1626H78.3441ZM71.2094 12.9143C70.4587 12.9143 69.7871 13.1022 69.1944 13.478C68.6018 13.8341 68.1276 14.3385 67.772 14.9912C67.4517 15.5792 67.2517 16.2554 67.1718 17.0199C67.1573 17.1581 67.2677 17.2758 67.4066 17.2758H74.8738C75.0091 17.2758 75.1181 17.164 75.1097 17.0289C75.0336 15.8006 74.662 14.8247 73.9949 14.1011C73.2837 13.3099 72.3552 12.9143 71.2094 12.9143Z" fill="white"/>
<path d="M90.7455 26.5033C90.6129 26.5033 90.5055 26.3958 90.5055 26.2633V25.0937C90.5055 24.8476 90.1485 24.7427 89.9905 24.9314C89.5868 25.4134 89.0967 25.8088 88.5201 26.1176C87.6903 26.5725 86.7026 26.8 85.5568 26.8C83.9171 26.8 82.6034 26.3648 81.6156 25.4945C80.6279 24.6242 80.134 23.467 80.134 22.0231C80.134 20.4802 80.7365 19.3132 81.9416 18.522C83.1664 17.711 84.9345 17.3055 87.2459 17.3055C87.7397 17.3055 88.204 17.3253 88.6386 17.3648C89.0163 17.3813 89.4213 17.4114 89.8535 17.4552C89.9959 17.4696 90.1202 17.3584 90.1202 17.2153V16.3857C90.1202 15.3176 89.8437 14.4967 89.2905 13.9231C88.7374 13.3297 87.9669 13.033 86.9792 13.033C85.9519 13.033 85.1222 13.3198 84.49 13.8934C83.9226 14.4249 83.6096 15.1771 83.5509 16.1501C83.543 16.2807 83.4369 16.3857 83.3061 16.3857H80.8013C80.664 16.3857 80.5543 16.2706 80.5657 16.1337C80.6539 15.0701 80.9545 14.1255 81.4675 13.3C82.0404 12.4099 82.8009 11.7176 83.7492 11.2231C84.7172 10.7088 85.7938 10.4517 86.9792 10.4517C88.9547 10.4517 90.4956 10.9857 91.6019 12.0539C92.7082 13.1022 93.2613 14.5659 93.2613 16.4451V26.2633C93.2613 26.3958 93.1539 26.5033 93.0213 26.5033H90.7455ZM83.2751 21.9341C83.2751 22.6857 83.5418 23.2989 84.0751 23.7736C84.6085 24.2286 85.3197 24.456 86.2087 24.456C87.4138 24.456 88.362 24.1297 89.0535 23.4769C89.7646 22.8044 90.1202 21.8945 90.1202 20.7473V19.7426C90.1202 19.6216 90.0301 19.5193 89.9099 19.5056C89.5113 19.4601 89.1271 19.4289 88.7571 19.4121C88.3423 19.3725 87.9077 19.3528 87.4533 19.3528C86.0704 19.3528 85.0234 19.5604 84.3122 19.9758C83.6208 20.3912 83.2751 21.044 83.2751 21.9341Z" fill="white"/>
<path d="M111.224 18.611C111.224 20.1736 110.928 21.578 110.335 22.8242C109.762 24.0506 108.962 25.0198 107.935 25.7319C106.908 26.444 105.683 26.8 104.26 26.8C103.174 26.8 102.186 26.5429 101.297 26.0286C100.633 25.6298 100.052 25.1209 99.5537 24.5016C99.4032 24.3147 99.0746 24.4159 99.0746 24.6559V26.2633C99.0746 26.3958 98.9672 26.5033 98.8346 26.5033H96.2625C96.1299 26.5033 96.0225 26.3958 96.0225 26.2633V5.44001C96.0225 5.30746 96.1299 5.20001 96.2625 5.20001H99.0717C99.2043 5.20001 99.3117 5.30746 99.3117 5.44001V12.4531C99.3117 12.695 99.6467 12.796 99.7978 12.607C100.272 12.0132 100.822 11.542 101.445 11.1934C102.295 10.6989 103.233 10.4517 104.26 10.4517C105.683 10.4517 106.908 10.7978 107.935 11.4901C108.962 12.1824 109.762 13.1517 110.335 14.3978C110.928 15.6242 111.224 17.0286 111.224 18.611ZM99.3413 18.5813C99.3216 19.689 99.4895 20.6385 99.8451 21.4297C100.22 22.2011 100.734 22.8044 101.386 23.2396C102.058 23.655 102.789 23.8626 103.579 23.8626C104.784 23.8626 105.782 23.4077 106.572 22.4978C107.382 21.5879 107.787 20.2923 107.787 18.611C107.787 16.9099 107.382 15.6143 106.572 14.7242C105.782 13.8341 104.784 13.389 103.579 13.389C102.394 13.389 101.396 13.8341 100.586 14.7242C99.776 15.5945 99.3611 16.8802 99.3413 18.5813Z" fill="white"/>
<path d="M116.42 26.2633C116.42 26.3958 116.313 26.5033 116.18 26.5033H113.312C113.179 26.5033 113.072 26.3958 113.072 26.2633V5.44001C113.072 5.30746 113.179 5.20001 113.312 5.20001H116.18C116.313 5.20001 116.42 5.30746 116.42 5.44001V26.2633Z" fill="white"/>
<path d="M133.215 21.1626C133.369 21.1626 133.484 21.3072 133.443 21.4566C133.006 23.0779 132.181 24.3645 130.969 25.3165C129.685 26.3055 128.105 26.8 126.228 26.8C124.707 26.8 123.373 26.4539 122.228 25.7615C121.082 25.0692 120.183 24.1099 119.531 22.8835C118.879 21.6374 118.553 20.1835 118.553 18.522C118.553 16.9593 118.879 15.5747 119.531 14.3681C120.203 13.1615 121.102 12.2121 122.228 11.5198C123.373 10.8077 124.677 10.4517 126.139 10.4517C127.344 10.4517 128.431 10.6791 129.399 11.1341C130.367 11.5692 131.187 12.2022 131.858 13.033C132.53 13.844 133.014 14.8033 133.31 15.911C133.59 16.9384 133.667 18.0451 133.542 19.2312C133.529 19.3516 133.427 19.4418 133.306 19.4418H122.235C122.101 19.4418 121.992 19.5523 121.999 19.6866C122.043 20.5533 122.228 21.3123 122.554 21.9637C122.909 22.6758 123.393 23.2297 124.006 23.6253C124.618 24.0011 125.339 24.189 126.169 24.189C127.235 24.189 128.115 23.9319 128.806 23.4176C129.472 22.9175 129.93 22.2265 130.18 21.3448C130.211 21.2384 130.306 21.1626 130.417 21.1626H133.215ZM126.08 12.9143C125.329 12.9143 124.657 13.1022 124.065 13.478C123.472 13.8341 122.998 14.3385 122.642 14.9912C122.322 15.5792 122.122 16.2554 122.042 17.0199C122.028 17.1581 122.138 17.2758 122.277 17.2758H129.744C129.879 17.2758 129.988 17.164 129.98 17.0289C129.904 15.8006 129.532 14.8247 128.865 14.1011C128.154 13.3099 127.226 12.9143 126.08 12.9143Z" fill="white"/>
</svg>
