<?xml version="1.0" standalone="no"?>
<!DOCTYPE svg PUBLIC "-//W3C//DTD SVG 20010904//EN"
 "http://www.w3.org/TR/2001/REC-SVG-20010904/DTD/svg10.dtd">
<svg version="1.0" xmlns="http://www.w3.org/2000/svg"
 width="48.000000pt" height="48.000000pt" viewBox="0 0 48.000000 48.000000"
 preserveAspectRatio="xMidYMid meet">

<g transform="translate(0.000000,48.000000) scale(0.100000,-0.100000)"
fill="#7251f6" stroke="none">
<path d="M138 414 l-98 -55 0 -119 0 -119 100 -56 c55 -31 103 -55 108 -53 4
1 49 27 100 56 l92 54 0 42 c0 36 -4 45 -25 54 -14 6 -25 16 -25 22 0 6 11 16
25 22 21 9 25 18 25 54 l0 42 -96 56 c-53 31 -99 56 -103 56 -3 0 -50 -25
-103 -56z m182 -30 c90 -52 102 -76 51 -106 -29 -16 -31 -15 -97 23 -95 56
-99 54 -99 -61 0 -115 4 -117 99 -61 66 38 68 39 97 23 51 -30 39 -54 -51
-106 l-80 -46 -80 46 -80 47 0 97 0 97 78 46 c42 25 78 46 80 46 2 1 39 -20
82 -45z m-60 -118 l43 -24 -41 -26 c-23 -14 -44 -26 -47 -26 -3 0 -5 23 -5 50
0 28 2 50 4 50 2 0 23 -11 46 -24z"/>
</g>
</svg>
